<svg width="38" height="9" viewBox="0 0 38 9" fill="none" xmlns="http://www.w3.org/2000/svg">
<path d="M0.5 4C0.223858 4 0 4.22386 0 4.5C0 4.77614 0.223858 5 0.5 5V4ZM37.3536 4.85355C37.5488 4.65829 37.5488 4.34171 37.3536 4.14645L34.1716 0.964466C33.9763 0.769204 33.6597 0.769204 33.4645 0.964466C33.2692 1.15973 33.2692 1.47631 33.4645 1.67157L36.2929 4.5L33.4645 7.32843C33.2692 7.52369 33.2692 7.84027 33.4645 8.03553C33.6597 8.2308 33.9763 8.2308 34.1716 8.03553L37.3536 4.85355ZM0.5 5H37V4H0.5V5Z" fill="black"/>
</svg>
