<svg width="715" height="24" viewBox="0 0 715 24" fill="none" xmlns="http://www.w3.org/2000/svg">
<line x1="0.5" y1="11.5" x2="329" y2="11.5" stroke="black" stroke-linecap="round" stroke-linejoin="round" stroke-dasharray="10 5"/>
<path d="M367.25 12C367.25 13.2337 366.234 14.25 365 14.25H359.492L356.68 20.5545L356.492 21H352.906L353.656 14.25H352.273L350.985 16.1722L350.773 16.5H347.586L347.773 15.609L348.5 12L347.773 8.39025L347.586 7.5H350.773L350.985 7.8285L352.273 9.75L353.656 9.75L352.906 3H356.491L356.679 3.4455L359.492 9.75H365C366.234 9.75 367.25 10.7662 367.25 12ZM365.75 12C365.75 11.5755 365.424 11.25 365 11.25H358.508L358.32 10.8045L355.508 4.5H354.594L355.344 11.25L351.453 11.25L351.243 10.9215L349.952 9H349.413L349.976 11.8597L350.023 12L349.976 12.141L349.413 15H349.952L351.242 13.0778L351.452 12.75L355.343 12.75L354.593 19.5H355.507L358.32 13.1955L358.507 12.75H365C365.424 12.75 365.75 12.4245 365.75 12Z" fill="black"/>
<line x1="386" y1="11.5" x2="714.5" y2="11.5" stroke="black" stroke-linecap="round" stroke-linejoin="round"/>
</svg>
