<svg width="32" height="32" viewBox="0 0 32 32" fill="none" xmlns="http://www.w3.org/2000/svg">
<path d="M14.9058 8.40575L15.7188 8.62475L18.1558 12.5938L15.3438 11.7498L14.9058 8.40575Z" fill="#6AC2E4"/>
<path d="M5.28075 6.62475L5.71875 6.74975L7.31175 10.9378L7.46875 11.4058L7.93675 11.5308L26.1248 17.1558C26.2778 17.1989 26.4207 17.2723 26.545 17.3717C26.6692 17.471 26.7722 17.5942 26.848 17.7341C26.9238 17.8739 26.9708 18.0275 26.9862 18.1858C27.0016 18.3441 26.9852 18.5039 26.9378 18.6558C26.8946 18.8088 26.8212 18.9517 26.7218 19.076C26.6225 19.2002 26.4993 19.3032 26.3595 19.379C26.2196 19.4548 26.066 19.5018 25.9077 19.5172C25.7494 19.5326 25.5896 19.5162 25.4378 19.4688L18.6878 17.4368L18.3438 17.3438L18.0308 17.4688L8.09375 21.6248L7.34375 21.3118L12.9688 17.4368L14.6878 16.2498L12.6878 15.6558L5.03075 13.3438L5.28075 6.62475Z" fill="#6AC2E4"/>
<path fill-rule="evenodd" clip-rule="evenodd" d="M19.4391 21.4391C19.7204 21.1578 20.1019 20.9998 20.4998 20.9998C20.8976 20.9998 21.2791 21.1578 21.5604 21.4391C21.8417 21.7204 21.9998 22.1019 21.9998 22.4998C21.9998 22.8976 21.8417 23.2791 21.5604 23.5604C21.2791 23.8417 20.8976 23.9998 20.4998 23.9998C20.1019 23.9998 19.7204 23.8417 19.4391 23.5604C19.1578 23.2791 18.9998 22.8976 18.9998 22.4998C18.9998 22.1019 19.1578 21.7204 19.4391 21.4391ZM2.99975 27.9998V25.9998H28.9998V27.9998H2.99975Z" fill="#6AC2E4"/>
</svg>
