<svg width="32" height="32" viewBox="0 0 32 32" fill="none" xmlns="http://www.w3.org/2000/svg">
<path d="M25.906 6.78091C26.031 6.77291 26.16 6.77691 26.281 6.81291C26.4703 6.86569 26.6394 6.97423 26.7661 7.1244C26.8929 7.27457 26.9716 7.45942 26.9918 7.65491C27.0121 7.85039 26.9731 8.04745 26.8799 8.22045C26.7866 8.39345 26.6434 8.53438 26.469 8.6249L20.875 11.6559L20.562 11.8119L20.437 12.1559L16.719 21.0939L16.281 21.2809L17.344 15.3749L17.719 13.3439L15.906 14.3129L9.594 17.7189L5.625 13.4059L5.781 13.3119L9.438 14.9379L9.906 15.1559L10.312 14.9059L25.532 6.8749C25.6483 6.81649 25.7759 6.7844 25.906 6.78091Z" fill="#6AC2E4"/>
<path d="M13.375 8.0939L17.219 9.0309L15.156 10.0939L12.906 8.3749L13.375 8.0939Z" fill="#6AC2E4"/>
<path fill-rule="evenodd" clip-rule="evenodd" d="M3 27.9999V25.9999H29V27.9999H3Z" fill="#6AC2E4"/>
</svg>
