<?xml version="1.0" encoding="UTF-8"?>
<svg id="Layer_1" data-name="Layer 1" xmlns="http://www.w3.org/2000/svg" viewBox="0 0 30 30">
  <defs>
    <style>
      .cls-1 {
        fill: #fff;
      }
    </style>
  </defs>
  <path d="M19.99,9.76c0,3.03-2.47,5.49-5.5,5.48-3.03,0-5.49-2.46-5.49-5.49,0-3.03,2.46-5.48,5.49-5.48,3.03,0,5.49,2.46,5.49,5.49Zm-5.49,3.98c2.2,0,3.99-1.78,4-3.98,.01-2.2-1.78-4-3.99-4-2.2,0-3.99,1.78-3.99,3.98,0,2.21,1.78,4,3.99,4Z"/>
  <path d="M17.13,25.73c-.37,0-.73,0-1.1,0-.47,0-.78-.3-.78-.78,0-.74,0-1.48,0-2.22,0-.26,.11-.46,.29-.64,.65-.65,1.3-1.31,1.96-1.94,.21-.2,.28-.39,.27-.69-.1-1.95,1.16-3.64,3.03-4.09,2.22-.54,4.45,.9,4.87,3.13,.42,2.27-1.12,4.41-3.4,4.7-.31,.04-.62,.03-.93,.02-.14,0-.23,.02-.33,.11-.69,.7-1.39,1.39-2.08,2.09-.22,.22-.46,.33-.77,.32-.34-.01-.69,0-1.03,0Zm-.39-1.5c.36,0,.69,0,1.02,0,.16,0,.27-.04,.39-.16,.7-.71,1.41-1.41,2.11-2.12,.27-.27,.55-.36,.93-.28,1.77,.38,3.34-1.14,3-2.89-.27-1.38-1.58-2.27-2.93-2-1.38,.28-2.25,1.59-1.95,2.98,.08,.4,0,.69-.29,.97-.71,.7-1.41,1.41-2.12,2.12-.06,.06-.14,.15-.14,.22-.01,.37,0,.74,0,1.15Z"/>
  <path d="M9.66,24.74c-1.19,0-2.39,0-3.58,0-1.11,0-1.81-.7-1.81-1.81,0-.6-.03-1.21,.04-1.8,.13-1.04,.74-1.83,1.52-2.5,1.13-.96,2.46-1.51,3.87-1.9,2.07-.58,4.19-.72,6.32-.57,.43,.03,.72,.36,.71,.78-.01,.41-.34,.72-.77,.72-.65-.01-1.31-.06-1.96-.04-2.08,.05-4.11,.4-5.99,1.36-.69,.35-1.32,.77-1.8,1.39-.31,.39-.47,.83-.46,1.34,.01,.38,0,.76,0,1.15,0,.37,.01,.39,.38,.39,2.38,0,4.76,0,7.13,0,.09,0,.19,0,.28,0,.41,.05,.7,.38,.69,.78-.02,.4-.34,.71-.75,.71-1.28,0-2.56,0-3.84,0Z"/>
  <path class="cls-1" d="M14.5,13.75c-2.21,0-4-1.79-3.99-4,0-2.2,1.79-3.98,3.99-3.98,2.21,0,4.01,1.8,3.99,4-.01,2.2-1.8,3.98-4,3.98Z"/>
  <path class="cls-1" d="M16.74,24.23c0-.41,0-.78,0-1.15,0-.08,.08-.16,.14-.22,.7-.71,1.4-1.42,2.12-2.12,.28-.28,.38-.57,.29-.97-.3-1.39,.57-2.7,1.95-2.98,1.35-.27,2.66,.62,2.93,2,.34,1.75-1.23,3.27-3,2.89-.38-.08-.66,0-.93,.28-.7,.71-1.41,1.41-2.11,2.12-.11,.12-.23,.16-.39,.16-.33-.01-.65,0-1.02,0Zm6.07-5c0-.6-.49-1.08-1.09-1.07-.59,0-1.06,.48-1.06,1.07,0,.6,.48,1.09,1.08,1.09,.6,0,1.08-.49,1.08-1.09Z"/>
  <path d="M22.82,19.23c0,.6-.48,1.09-1.08,1.09-.6,0-1.08-.48-1.08-1.09,0-.59,.47-1.07,1.06-1.07,.6,0,1.09,.47,1.09,1.07Z"/>
</svg>