<svg width="11" height="16" viewBox="0 0 11 16" fill="none" xmlns="http://www.w3.org/2000/svg">
<g clip-path="url(#clip0_2318_2045)">
<path d="M7.33398 3.75C7.26768 3.75 7.20409 3.72366 7.15721 3.67678C7.11032 3.62989 7.08398 3.5663 7.08398 3.5V1.5H3.58398V3.5C3.58398 3.5663 3.55765 3.62989 3.51076 3.67678C3.46388 3.72366 3.40029 3.75 3.33398 3.75C3.26768 3.75 3.20409 3.72366 3.15721 3.67678C3.11032 3.62989 3.08398 3.5663 3.08398 3.5V1.25C3.08398 1.1837 3.11032 1.12011 3.15721 1.07322C3.20409 1.02634 3.26768 1 3.33398 1H7.33398C7.40029 1 7.46388 1.02634 7.51076 1.07322C7.55764 1.12011 7.58398 1.1837 7.58398 1.25V3.5C7.58398 3.5663 7.55764 3.62989 7.51076 3.67678C7.46388 3.72366 7.40029 3.75 7.33398 3.75Z" fill="#17181C"/>
<path d="M9.83398 5V13.25C9.83398 13.6478 9.67595 14.0294 9.39464 14.3107C9.11334 14.592 8.73181 14.75 8.33398 14.75H2.33398C1.93616 14.75 1.55463 14.592 1.27332 14.3107C0.99202 14.0294 0.833984 13.6478 0.833984 13.25V5C0.833984 4.60218 0.99202 4.22064 1.27332 3.93934C1.55463 3.65804 1.93616 3.5 2.33398 3.5H4.08398L4.33398 4H6.33398L6.58398 3.5H8.33398C8.73181 3.5 9.11334 3.65804 9.39464 3.93934C9.67595 4.22064 9.83398 4.60218 9.83398 5Z" fill="#3B95B7"/>
<path d="M7.08398 0.5H3.58398C3.30784 0.5 3.08398 0.723858 3.08398 1V1.25C3.08398 1.52614 3.30784 1.75 3.58398 1.75H7.08398C7.36013 1.75 7.58398 1.52614 7.58398 1.25V1C7.58398 0.723858 7.36013 0.5 7.08398 0.5Z" fill="#3B95B7"/>
<path d="M2.33398 14.75H3.33398V15C3.33398 15.1326 3.28131 15.2598 3.18754 15.3536C3.09377 15.4473 2.96659 15.5 2.83398 15.5C2.70138 15.5 2.5742 15.4473 2.48043 15.3536C2.38666 15.2598 2.33398 15.1326 2.33398 15V14.75Z" fill="#17181C"/>
<path d="M8.33398 14.75V15C8.33398 15.1326 8.28131 15.2598 8.18754 15.3536C8.09377 15.4473 7.96659 15.5 7.83398 15.5C7.70138 15.5 7.5742 15.4473 7.48043 15.3536C7.38666 15.2598 7.33398 15.1326 7.33398 15V14.75H8.33398Z" fill="#17181C"/>
<path d="M5.83398 6.25C5.83398 5.97386 5.61013 5.75 5.33398 5.75C5.05784 5.75 4.83398 5.97386 4.83398 6.25V12.5C4.83398 12.7761 5.05784 13 5.33398 13C5.61013 13 5.83398 12.7761 5.83398 12.5V6.25Z" fill="white"/>
<path d="M3.33398 6.25C3.33398 5.97386 3.11013 5.75 2.83398 5.75C2.55784 5.75 2.33398 5.97386 2.33398 6.25V12.5C2.33398 12.7761 2.55784 13 2.83398 13C3.11013 13 3.33398 12.7761 3.33398 12.5V6.25Z" fill="white"/>
<path d="M8.33398 6.25C8.33398 5.97386 8.11013 5.75 7.83398 5.75C7.55784 5.75 7.33398 5.97386 7.33398 6.25V12.5C7.33398 12.7761 7.55784 13 7.83398 13C8.11013 13 8.33398 12.7761 8.33398 12.5V6.25Z" fill="white"/>
</g>
<defs>
<clipPath id="clip0_2318_2045">
<rect width="10.6667" height="16" fill="white"/>
</clipPath>
</defs>
</svg>
