<svg width="32" height="32" viewBox="0 0 32 32" fill="none" xmlns="http://www.w3.org/2000/svg">
<path d="M25.906 6.78139C26.031 6.77339 26.16 6.77739 26.281 6.81339C26.4703 6.86618 26.6394 6.97471 26.7661 7.12489C26.8929 7.27506 26.9716 7.45991 26.9918 7.65539C27.0121 7.85088 26.9731 8.04794 26.8799 8.22094C26.7866 8.39394 26.6434 8.53487 26.469 8.62539L20.875 11.6564L20.562 11.8124L20.437 12.1564L16.719 21.0944L16.281 21.2814L17.344 15.3754L17.719 13.3444L15.906 14.3134L9.594 17.7194L5.625 13.4064L5.781 13.3124L9.438 14.9384L9.906 15.1564L10.312 14.9064L25.532 6.87539C25.6483 6.81698 25.7759 6.78489 25.906 6.78139Z" fill="#6AC2E4"/>
<path d="M13.375 8.09439L17.219 9.03139L15.156 10.0944L12.906 8.37539L13.375 8.09439Z" fill="#6AC2E4"/>
<path fill-rule="evenodd" clip-rule="evenodd" d="M3 28.0004V26.0004H29V28.0004H3Z" fill="#6AC2E4"/>
</svg>
