<svg width="26" height="26" viewBox="0 0 26 26" fill="none" xmlns="http://www.w3.org/2000/svg">
<g clip-path="url(#clip0_1737_2898)">
<path d="M20.7281 11.551C21.7657 11.6249 22.5416 12.5345 22.4509 13.5708C22.3627 14.5786 21.4859 15.3317 20.4763 15.2668L17.465 15.0731C17.2289 15.058 17.1109 15.0504 17.0018 15.0762C16.9053 15.0991 16.8142 15.1409 16.7339 15.1992C16.6432 15.2651 16.572 15.3595 16.4297 15.5484L12.9608 20.1508C12.8147 20.3447 12.7416 20.4416 12.6483 20.5084C12.5657 20.5675 12.472 20.6093 12.3728 20.6311C12.2607 20.6557 12.1398 20.6451 11.8979 20.624L11.5062 20.5897C10.8657 20.5337 10.5455 20.5057 10.3644 20.3539C10.2063 20.2214 10.1098 20.0296 10.0975 19.8236C10.0835 19.5878 10.2518 19.3139 10.5883 18.7661L13.0834 14.7048L9.54869 14.3955C9.3377 14.3771 9.2322 14.3678 9.13245 14.3861C9.04408 14.4024 8.95935 14.4343 8.88228 14.4805C8.79529 14.5327 8.72218 14.6093 8.57596 14.7625L7.7146 15.6651C7.56838 15.8184 7.49527 15.895 7.40828 15.9471C7.33122 15.9933 7.24648 16.0253 7.15811 16.0415C7.05836 16.0598 6.95287 16.0506 6.74187 16.0321L6.53318 16.0139C6.03334 15.9701 5.78342 15.9483 5.61734 15.8303C5.47168 15.7268 5.36775 15.5747 5.32427 15.4014C5.2747 15.2038 5.34515 14.963 5.48606 14.4814L6.08157 12.4463C6.10675 12.3602 6.11933 12.3172 6.12669 12.2734C6.13323 12.2344 6.13667 12.195 6.137 12.1555C6.13737 12.111 6.13244 12.0665 6.12259 11.9774L5.88954 9.86973C5.83439 9.37101 5.80682 9.12165 5.88995 8.93567C5.96286 8.77253 6.09162 8.64079 6.25304 8.56417C6.43708 8.47681 6.68701 8.49867 7.18685 8.54241L7.39554 8.56066C7.60653 8.57912 7.71203 8.58835 7.80709 8.62371C7.8913 8.65503 7.96919 8.70122 8.03707 8.7601C8.11368 8.82655 8.17237 8.91469 8.28977 9.09098L8.9813 10.1295C9.09869 10.3058 9.15739 10.3939 9.234 10.4604C9.30187 10.5192 9.37977 10.5654 9.46398 10.5968C9.55904 10.6321 9.66453 10.6413 9.87553 10.6598L13.4103 10.969L11.6583 6.53614C11.422 5.93823 11.3038 5.63927 11.3586 5.40945C11.4064 5.20878 11.5348 5.03666 11.7135 4.9336C11.9182 4.81559 12.2384 4.8436 12.8789 4.89964L13.2706 4.93391C13.5125 4.95507 13.6334 4.96565 13.7395 5.00938C13.8334 5.04808 13.9185 5.10545 13.9896 5.17801C14.0699 5.26 14.125 5.36815 14.2352 5.58446L16.8422 10.6998C16.9506 10.9124 17.0047 11.0187 17.083 11.0995C17.1585 11.1775 17.2501 11.2382 17.3514 11.2774C17.4564 11.318 17.5753 11.3265 17.8133 11.3434L20.7281 11.551Z" stroke="#6F6F6F" stroke-width="1.56364" stroke-linecap="round" stroke-linejoin="round"/>
</g>
<defs>
<clipPath id="clip0_1737_2898">
<rect width="18" height="18" fill="white" transform="translate(13.7891) rotate(50)"/>
</clipPath>
</defs>
</svg>
