<svg width="22" height="22" viewBox="0 0 22 22" fill="none" xmlns="http://www.w3.org/2000/svg">
<g clip-path="url(#clip0_126_671)">
<path d="M0 0H22V7.33477H0V0Z" fill="#FF9933"/>
<path d="M0 7.33472H22V14.6652H0V7.33472Z" fill="white"/>
<path d="M0 14.6653H22V22H0V14.6653Z" fill="#128807"/>
<path d="M11.0007 13.9333C12.6207 13.9333 13.934 12.62 13.934 11C13.934 9.37995 12.6207 8.06665 11.0007 8.06665C9.38068 8.06665 8.06738 9.37995 8.06738 11C8.06738 12.62 9.38068 13.9333 11.0007 13.9333Z" fill="#000088"/>
<path d="M11.0003 13.5667C12.4178 13.5667 13.5669 12.4175 13.5669 11C13.5669 9.58248 12.4178 8.43335 11.0003 8.43335C9.58273 8.43335 8.43359 9.58248 8.43359 11C8.43359 12.4175 9.58273 13.5667 11.0003 13.5667Z" fill="white"/>
<path d="M11.0006 11.5132C11.2841 11.5132 11.514 11.2834 11.514 10.9999C11.514 10.7164 11.2841 10.4866 11.0006 10.4866C10.7171 10.4866 10.4873 10.7164 10.4873 10.9999C10.4873 11.2834 10.7171 11.5132 11.0006 11.5132Z" fill="#000088"/>
<path d="M13.5271 11.467C13.5994 11.4765 13.6657 11.4256 13.6752 11.3533C13.6847 11.281 13.6338 11.2147 13.5615 11.2052C13.4893 11.1957 13.423 11.2466 13.4134 11.3189C13.4039 11.3911 13.4548 11.4574 13.5271 11.467Z" fill="#000088"/>
<path d="M11.0001 13.5668L11.0881 12.0268L11.0001 11.2935L10.9121 12.0268L11.0001 13.5668Z" fill="#000088"/>
<path d="M13.3207 12.105C13.3881 12.1329 13.4653 12.1009 13.4932 12.0335C13.5211 11.9662 13.4891 11.889 13.4218 11.8611C13.3544 11.8332 13.2772 11.8651 13.2493 11.9325C13.2214 11.9999 13.2534 12.0771 13.3207 12.105Z" fill="#000088"/>
<path d="M10.3355 13.4791L10.8191 12.0144L10.9239 11.2833L10.6491 11.9688L10.3355 13.4791Z" fill="#000088"/>
<path d="M12.9567 12.668C13.0145 12.7124 13.0974 12.7014 13.1418 12.6436C13.1862 12.5858 13.1753 12.5029 13.1174 12.4585C13.0596 12.4142 12.9767 12.4251 12.9323 12.4829C12.888 12.5407 12.8989 12.6236 12.9567 12.668Z" fill="#000088"/>
<path d="M9.71786 13.2227L10.5641 11.933L10.8545 11.254L10.4117 11.845L9.71786 13.2227Z" fill="#000088"/>
<path d="M12.4578 13.1172C12.5022 13.1751 12.5851 13.186 12.6429 13.1416C12.7007 13.0972 12.7117 13.0144 12.6673 12.9565C12.6229 12.8987 12.54 12.8878 12.4822 12.9322C12.4244 12.9765 12.4134 13.0594 12.4578 13.1172Z" fill="#000088"/>
<path d="M9.18618 12.8147L10.3374 11.788L10.7937 11.2072L10.2129 11.6636L9.18618 12.8147Z" fill="#000088"/>
<path d="M11.8613 13.4224C11.8892 13.4898 11.9664 13.5218 12.0338 13.4939C12.1011 13.466 12.1331 13.3888 12.1052 13.3214C12.0773 13.2541 12.0001 13.2221 11.9327 13.25C11.8654 13.2779 11.8334 13.3551 11.8613 13.4224Z" fill="#000088"/>
<path d="M8.77836 12.2834L10.156 11.5896L10.7471 11.1468L10.068 11.4372L8.77836 12.2834Z" fill="#000088"/>
<path d="M11.2047 13.5621C11.2142 13.6343 11.2805 13.6852 11.3528 13.6757C11.4251 13.6662 11.476 13.5999 11.4664 13.5276C11.4569 13.4553 11.3906 13.4044 11.3183 13.414C11.2461 13.4235 11.1952 13.4898 11.2047 13.5621Z" fill="#000088"/>
<path d="M8.52222 11.6643L10.0325 11.3508L10.7181 11.076L9.98697 11.1808L8.52222 11.6643Z" fill="#000088"/>
<path d="M10.5208 13.5276C10.5113 13.5998 10.5622 13.6661 10.6345 13.6757C10.7068 13.6852 10.7731 13.6343 10.7826 13.562C10.7921 13.4897 10.7412 13.4234 10.6689 13.4139C10.5967 13.4044 10.5303 13.4553 10.5208 13.5276Z" fill="#000088"/>
<path d="M8.421 11.0001L9.961 11.0881L10.6943 11.0001L9.961 10.9121L8.421 11.0001Z" fill="#000088"/>
<path d="M9.88234 13.3205C9.85444 13.3878 9.88643 13.4651 9.95378 13.493C10.0211 13.5208 10.0983 13.4889 10.1262 13.4215C10.1541 13.3542 10.1222 13.2769 10.0548 13.249C9.98745 13.2211 9.91024 13.2531 9.88234 13.3205Z" fill="#000088"/>
<path d="M8.50889 10.3357L9.97364 10.8193L10.7048 10.9241L10.0192 10.6493L8.50889 10.3357Z" fill="#000088"/>
<path d="M9.33227 12.9555C9.28789 13.0133 9.2988 13.0962 9.35663 13.1406C9.41447 13.1849 9.49733 13.174 9.54171 13.1162C9.58609 13.0584 9.57518 12.9755 9.51735 12.9311C9.45951 12.8867 9.37665 12.8976 9.33227 12.9555Z" fill="#000088"/>
<path d="M8.77728 9.71664L10.067 10.5629L10.746 10.8533L10.155 10.4104L8.77728 9.71664Z" fill="#000088"/>
<path d="M8.883 12.4571C8.82517 12.5015 8.81426 12.5843 8.85864 12.6422C8.90302 12.7 8.98588 12.7109 9.04371 12.6665C9.10155 12.6222 9.11246 12.5393 9.06808 12.4815C9.0237 12.4236 8.94084 12.4127 8.883 12.4571Z" fill="#000088"/>
<path d="M9.18576 9.18521L10.2125 10.3364L10.7932 10.7927L10.3369 10.2119L9.18576 9.18521Z" fill="#000088"/>
<path d="M8.57878 11.8596C8.51143 11.8875 8.47944 11.9647 8.50734 12.0321C8.53524 12.0994 8.61245 12.1314 8.67981 12.1035C8.74716 12.0756 8.77914 11.9984 8.75124 11.931C8.72335 11.8637 8.64613 11.8317 8.57878 11.8596Z" fill="#000088"/>
<path d="M9.71779 8.77739L10.4116 10.1551L10.8545 10.7461L10.564 10.0671L9.71779 8.77739Z" fill="#000088"/>
<path d="M8.43819 11.2032C8.36591 11.2128 8.31503 11.2791 8.32455 11.3513C8.33406 11.4236 8.40037 11.4745 8.47265 11.465C8.54492 11.4555 8.5958 11.3892 8.58629 11.3169C8.57677 11.2446 8.51046 11.1937 8.43819 11.2032Z" fill="#000088"/>
<path d="M10.3364 8.521L10.65 10.0313L10.9248 10.7169L10.82 9.98575L10.3364 8.521Z" fill="#000088"/>
<path d="M8.4739 10.533C8.40162 10.5235 8.33532 10.5744 8.3258 10.6467C8.31629 10.719 8.36716 10.7853 8.43944 10.7948C8.51172 10.8043 8.57803 10.7534 8.58754 10.6811C8.59706 10.6089 8.54618 10.5426 8.4739 10.533Z" fill="#000088"/>
<path d="M11.0009 8.43321L10.9129 9.97321L11.0009 10.7065L11.0889 9.97321L11.0009 8.43321Z" fill="#000088"/>
<path d="M8.68025 9.89504C8.6129 9.86714 8.53568 9.89912 8.50778 9.96647C8.47988 10.0338 8.51187 10.111 8.57922 10.1389C8.64657 10.1668 8.72379 10.1349 8.75169 10.0675C8.77958 10.0001 8.7476 9.92293 8.68025 9.89504Z" fill="#000088"/>
<path d="M11.6655 8.52086L11.1819 9.9856L11.0771 10.7167L11.3519 10.0312L11.6655 8.52086Z" fill="#000088"/>
<path d="M9.04427 9.33202C8.98643 9.28765 8.90357 9.29855 8.85919 9.35639C8.81481 9.41423 8.82572 9.49709 8.88356 9.54147C8.9414 9.58585 9.02426 9.57494 9.06864 9.5171C9.11302 9.45927 9.10211 9.3764 9.04427 9.33202Z" fill="#000088"/>
<path d="M12.2831 8.77728L11.4369 10.067L11.1464 10.746L11.5893 10.155L12.2831 8.77728Z" fill="#000088"/>
<path d="M9.54315 8.88276C9.49877 8.82492 9.41591 8.81401 9.35807 8.85839C9.30024 8.90277 9.28933 8.98563 9.33371 9.04347C9.37809 9.10131 9.46095 9.11222 9.51879 9.06784C9.57662 9.02346 9.58753 8.94059 9.54315 8.88276Z" fill="#000088"/>
<path d="M12.8148 9.18527L11.6636 10.212L11.2073 10.7928L11.7881 10.3364L12.8148 9.18527Z" fill="#000088"/>
<path d="M10.127 8.57438C10.0991 8.50703 10.0219 8.47505 9.95452 8.50295C9.88717 8.53084 9.85518 8.60806 9.88308 8.67541C9.91098 8.74276 9.98819 8.77475 10.0555 8.74685C10.1229 8.71895 10.1549 8.64174 10.127 8.57438Z" fill="#000088"/>
<path d="M13.2099 9.71339L11.8322 10.4072L11.2412 10.8501L11.9202 10.5596L13.2099 9.71339Z" fill="#000088"/>
<path d="M10.7836 8.43477C10.7741 8.36249 10.7078 8.31161 10.6355 8.32113C10.5632 8.33064 10.5123 8.39695 10.5218 8.46923C10.5313 8.5415 10.5977 8.59238 10.6699 8.58287C10.7422 8.57335 10.7931 8.50705 10.7836 8.43477Z" fill="#000088"/>
<path d="M13.4661 10.3325L11.9558 10.6461L11.2702 10.9209L12.0013 10.8161L13.4661 10.3325Z" fill="#000088"/>
<path d="M11.4674 8.46926C11.477 8.39698 11.4261 8.33068 11.3538 8.32116C11.2815 8.31165 11.2152 8.36253 11.2057 8.4348C11.1962 8.50708 11.2471 8.57339 11.3193 8.5829C11.3916 8.59242 11.4579 8.54154 11.4674 8.46926Z" fill="#000088"/>
<path d="M13.5673 10.9967L12.0273 10.9087L11.2939 10.9967L12.0273 11.0847L13.5673 10.9967Z" fill="#000088"/>
<path d="M12.1059 8.67634C12.1338 8.60899 12.1019 8.53177 12.0345 8.50388C11.9672 8.47598 11.8899 8.50796 11.862 8.57531C11.8341 8.64267 11.8661 8.71988 11.9335 8.74778C12.0008 8.77568 12.078 8.74369 12.1059 8.67634Z" fill="#000088"/>
<path d="M13.4794 11.6611L12.0146 11.1775L11.2835 11.0727L11.9691 11.3475L13.4794 11.6611Z" fill="#000088"/>
<path d="M12.655 9.04134C12.6994 8.98351 12.6885 8.90064 12.6307 8.85626C12.5728 8.81188 12.49 8.82279 12.4456 8.88063C12.4012 8.93847 12.4121 9.02133 12.47 9.06571C12.5278 9.11009 12.6107 9.09918 12.655 9.04134Z" fill="#000088"/>
<path d="M13.21 12.2802L11.9204 11.434L11.2413 11.1435L11.8324 11.5864L13.21 12.2802Z" fill="#000088"/>
<path d="M13.1043 9.53973C13.1621 9.49535 13.173 9.41249 13.1287 9.35465C13.0843 9.29682 13.0014 9.28591 12.9436 9.33029C12.8858 9.37467 12.8748 9.45753 12.9192 9.51537C12.9636 9.5732 13.0465 9.58411 13.1043 9.53973Z" fill="#000088"/>
<path d="M12.8015 12.8116L11.7748 11.6605L11.1941 11.2041L11.6504 11.7849L12.8015 12.8116Z" fill="#000088"/>
<path d="M13.4085 10.1372C13.4759 10.1093 13.5079 10.0321 13.48 9.96477C13.4521 9.89742 13.3749 9.86544 13.3075 9.89333C13.2401 9.92123 13.2082 9.99845 13.2361 10.0658C13.264 10.1332 13.3412 10.1651 13.4085 10.1372Z" fill="#000088"/>
<path d="M12.2695 13.2194L11.5757 11.8418L11.1329 11.2507L11.4233 11.9298L12.2695 13.2194Z" fill="#000088"/>
<path d="M13.5491 10.7936C13.6214 10.7841 13.6723 10.7178 13.6628 10.6455C13.6532 10.5732 13.5869 10.5223 13.5147 10.5318C13.4424 10.5414 13.3915 10.6077 13.401 10.6799C13.4105 10.7522 13.4768 10.8031 13.5491 10.7936Z" fill="#000088"/>
<path d="M11.6509 13.4758L11.3373 11.9655L11.0625 11.28L11.1673 12.0111L11.6509 13.4758Z" fill="#000088"/>
</g>
<defs>
<clipPath id="clip0_126_671">
<rect width="22" height="22" rx="11" fill="white"/>
</clipPath>
</defs>
</svg>
