<svg width="34" height="34" viewBox="0 0 34 34" fill="none" xmlns="http://www.w3.org/2000/svg">
<g clip-path="url(#clip0_126_2290)">
<path d="M24.9434 22.4445C24.3265 23.513 22.9383 23.885 21.8698 23.2681L17.0997 20.5141L11.5118 24.5677L11.1267 24.8598L8.02131 23.0669L12.0458 17.5962L10.8481 16.9047L8.77111 17.9252L8.42408 18.1033L5.66362 16.5095L6.2715 15.8317L8.70538 13.0695L9.88087 9.58003L10.1636 8.7153L12.9241 10.3091L12.943 10.6993L13.0975 13.0072L14.2952 13.6987L17.0207 7.47806L20.126 9.27094L20.0656 9.7505L19.3497 16.617L24.1198 19.371C25.1883 19.9879 25.5602 21.3761 24.9434 22.4445ZM23.6443 21.6945C23.8566 21.3269 23.7374 20.8823 23.3698 20.67L17.7476 17.424L17.8079 16.9445L18.5245 10.0784L17.7327 9.62123L15.0072 15.8419L11.6375 13.8964L11.6199 13.5069L11.4629 11.1975L10.9965 10.9282L10.0538 13.6861L10.0239 13.8308L9.91314 13.9297L7.9965 16.1244L8.46285 16.3936L10.5412 15.3739L10.8869 15.1951L14.2566 17.1406L10.2321 22.6112L11.0238 23.0684L16.6118 19.0147L16.9969 18.7227L22.6198 21.9691C22.9874 22.1813 23.4321 22.0622 23.6443 21.6945Z" fill="black"/>
</g>
<defs>
<clipPath id="clip0_126_2290">
<rect width="24" height="24" fill="white" transform="matrix(0.5 -0.866025 -0.866025 -0.5 21.3926 33.1772)"/>
</clipPath>
</defs>
</svg>
