<svg width="14" height="13" viewBox="0 0 14 13" fill="none" xmlns="http://www.w3.org/2000/svg">
<path d="M3.67702 2.05859H2.12109V11.9409H3.67702V2.05859Z" fill="#DAF4FF"/>
<path d="M9.89755 2.05859H3.67383V11.9409H9.89755V2.05859Z" fill="#3B95B7"/>
<path d="M11.4544 2.05859H9.89844V11.9409H11.4544V2.05859Z" fill="#DAF4FF"/>
<path d="M0.5625 3.70565V10.2939C0.565988 10.7283 0.731455 11.1436 1.02287 11.4495C1.31429 11.7554 1.70805 11.927 2.11843 11.9269V2.05859C1.70621 2.06011 1.31129 2.23413 1.01981 2.54268C0.728324 2.85124 0.563935 3.26929 0.5625 3.70565ZM11.454 2.06271V11.9253C11.8641 11.9253 12.2577 11.7539 12.549 11.4484C12.8404 11.1429 13.006 10.728 13.0099 10.2939V3.70565C13.0077 3.26994 12.8429 2.85282 12.5515 2.5451C12.2601 2.23739 11.8656 2.06401 11.454 2.06271Z" fill="#3B95B7"/>
<path d="M11.4543 12.3533H2.11874C1.60292 12.3533 1.10822 12.1364 0.74348 11.7503C0.378738 11.3642 0.173828 10.8406 0.173828 10.2945V3.70628C0.173828 3.16025 0.378738 2.63658 0.74348 2.25048C1.10822 1.86437 1.60292 1.64746 2.11874 1.64746H11.4543C11.9701 1.64746 12.4648 1.86437 12.8296 2.25048C13.1943 2.63658 13.3992 3.16025 13.3992 3.70628V10.2945C13.3992 10.8406 13.1943 11.3642 12.8296 11.7503C12.4648 12.1364 11.9701 12.3533 11.4543 12.3533ZM2.11874 2.47099C1.80925 2.47099 1.51243 2.60114 1.29358 2.8328C1.07474 3.06446 0.951793 3.37866 0.951793 3.70628V10.2945C0.951793 10.6221 1.07474 10.9363 1.29358 11.168C1.51243 11.3997 1.80925 11.5298 2.11874 11.5298H11.4543C11.7638 11.5298 12.0606 11.3997 12.2795 11.168C12.4983 10.9363 12.6213 10.6221 12.6213 10.2945V3.70628C12.6213 3.37866 12.4983 3.06446 12.2795 2.8328C12.0606 2.60114 11.7638 2.47099 11.4543 2.47099H2.11874Z" fill="#1A1A1A"/>
<path d="M2.1214 12.3529C2.01824 12.3529 1.9193 12.3096 1.84635 12.2323C1.7734 12.1551 1.73242 12.0504 1.73242 11.9412V2.05882C1.73242 1.94962 1.7734 1.84488 1.84635 1.76766C1.9193 1.69044 2.01824 1.64706 2.1214 1.64706C2.22457 1.64706 2.32351 1.69044 2.39646 1.76766C2.46941 1.84488 2.51039 1.94962 2.51039 2.05882V11.9412C2.51039 12.0504 2.46941 12.1551 2.39646 12.2323C2.32351 12.3096 2.22457 12.3529 2.1214 12.3529ZM3.67734 12.3529C3.57417 12.3529 3.47523 12.3096 3.40228 12.2323C3.32933 12.1551 3.28835 12.0504 3.28835 11.9412V2.05882C3.28835 1.94962 3.32933 1.84488 3.40228 1.76766C3.47523 1.69044 3.57417 1.64706 3.67734 1.64706C3.7805 1.64706 3.87944 1.69044 3.95239 1.76766C4.02534 1.84488 4.06632 1.94962 4.06632 2.05882V11.9412C4.06632 12.0504 4.02534 12.1551 3.95239 12.2323C3.87944 12.3096 3.7805 12.3529 3.67734 12.3529ZM8.34513 2.47059C8.24196 2.47059 8.14302 2.42721 8.07008 2.34999C7.99713 2.27276 7.95615 2.16803 7.95615 2.05882V1.23529C7.95615 1.12609 7.91516 1.02135 7.84222 0.944133C7.76927 0.866912 7.67033 0.823529 7.56716 0.823529H6.01123C5.90807 0.823529 5.80913 0.866912 5.73618 0.944133C5.66323 1.02135 5.62225 1.12609 5.62225 1.23529V2.05882C5.62225 2.16803 5.58127 2.27276 5.50832 2.34999C5.43537 2.42721 5.33643 2.47059 5.23327 2.47059C5.1301 2.47059 5.03116 2.42721 4.95821 2.34999C4.88527 2.27276 4.84428 2.16803 4.84428 2.05882V1.23529C4.84428 0.907674 4.96723 0.593472 5.18607 0.361809C5.40492 0.130147 5.70174 0 6.01123 0H7.56716C7.87666 0 8.17347 0.130147 8.39232 0.361809C8.61117 0.593472 8.73411 0.907674 8.73411 1.23529V2.05882C8.73411 2.16803 8.69313 2.27276 8.62018 2.34999C8.54723 2.42721 8.44829 2.47059 8.34513 2.47059ZM9.90106 12.3529C9.79789 12.3529 9.69895 12.3096 9.62601 12.2323C9.55306 12.1551 9.51208 12.0504 9.51208 11.9412V2.05882C9.51208 1.94962 9.55306 1.84488 9.62601 1.76766C9.69895 1.69044 9.79789 1.64706 9.90106 1.64706C10.0042 1.64706 10.1032 1.69044 10.1761 1.76766C10.2491 1.84488 10.29 1.94962 10.29 2.05882V11.9412C10.29 12.0504 10.2491 12.1551 10.1761 12.2323C10.1032 12.3096 10.0042 12.3529 9.90106 12.3529ZM11.457 12.3529C11.3538 12.3529 11.2549 12.3096 11.1819 12.2323C11.109 12.1551 11.068 12.0504 11.068 11.9412V2.05882C11.068 1.94962 11.109 1.84488 11.1819 1.76766C11.2549 1.69044 11.3538 1.64706 11.457 1.64706C11.5602 1.64706 11.6591 1.69044 11.732 1.76766C11.805 1.84488 11.846 1.94962 11.846 2.05882V11.9412C11.846 12.0504 11.805 12.1551 11.732 12.2323C11.6591 12.3096 11.5602 12.3529 11.457 12.3529Z" fill="#1A1A1A"/>
</svg>
