<svg width="25" height="25" viewBox="0 0 25 25" fill="none" xmlns="http://www.w3.org/2000/svg">
<path d="M22.2546 13.3984V16.1007L14.2617 13.7349L14.6653 9.04932L22.2546 13.3984Z" stroke="#007191" stroke-width="0.5" stroke-miterlimit="10" stroke-linecap="round" stroke-linejoin="round"/>
<path d="M2.74414 16.1007V13.3984L10.3335 9.04932L10.7374 13.7349L2.74414 16.1007Z" stroke="#007191" stroke-width="0.5" stroke-miterlimit="10" stroke-linecap="round" stroke-linejoin="round"/>
<path d="M11.3223 20.4941C11.3865 21.0963 11.892 21.556 12.5002 21.556C13.1084 21.556 13.6139 21.0963 13.6781 20.4941L17.3781 22.6143V23.9655L12.5002 22.5219L7.62305 23.9655V22.6143L11.3223 20.4941Z" stroke="#007191" stroke-width="0.5" stroke-miterlimit="10" stroke-linecap="round" stroke-linejoin="round"/>
<path d="M12.5 1.03467C14.036 1.03467 15.2429 2.35018 15.1109 3.88053L14.6657 9.04909L14.2618 13.7347L13.6815 20.4714C13.6808 20.4791 13.6779 20.4862 13.6772 20.4939C13.613 21.0961 13.1075 21.5558 12.4993 21.5558C11.8911 21.5558 11.3856 21.0961 11.3214 20.4939C11.3207 20.4862 11.3182 20.4791 11.3175 20.4714L10.7368 13.7347L10.3329 9.04909L9.88873 3.88053C9.75715 2.35018 10.9637 1.03467 12.5 1.03467Z" stroke="#007191" stroke-width="0.5" stroke-miterlimit="10" stroke-linecap="round" stroke-linejoin="round"/>
</svg>
