<svg width="523" height="24" viewBox="0 0 523 24" fill="none" xmlns="http://www.w3.org/2000/svg">
<line x1="0.5" y1="11.5" x2="233" y2="11.5" stroke="black" stroke-linecap="round" stroke-linejoin="round" stroke-dasharray="10 5"/>
<path d="M251.75 12C251.75 10.7663 252.766 9.75 254 9.75L259.508 9.75L262.32 3.4455L262.508 3L266.094 3L265.344 9.75L266.727 9.75L268.015 7.82775L268.227 7.5L271.414 7.5L271.227 8.391L270.5 12L271.227 15.6098L271.414 16.5L268.227 16.5L268.015 16.1715L266.727 14.25L265.344 14.25L266.094 21L262.509 21L262.321 20.5545L259.508 14.25L254 14.25C252.766 14.25 251.75 13.2337 251.75 12ZM253.25 12C253.25 12.4245 253.575 12.75 254 12.75L260.492 12.75L260.679 13.1955L263.492 19.5L264.406 19.5L263.656 12.75L267.547 12.75L267.757 13.0785L269.048 15L269.586 15L269.024 12.1403L268.977 12L269.024 11.859L269.586 9L269.048 9L267.758 10.9223L267.548 11.25L263.657 11.25L264.407 4.5L263.493 4.5L260.68 10.8045L260.493 11.25L254 11.25C253.575 11.25 253.25 11.5755 253.25 12Z" fill="black"/>
<line x1="290" y1="11.5" x2="522.5" y2="11.5" stroke="black" stroke-linecap="round" stroke-linejoin="round"/>
</svg>
