<svg width="532" height="24" viewBox="0 0 532 24" fill="none" xmlns="http://www.w3.org/2000/svg">
<line x1="0.5" y1="11.5" x2="237.5" y2="11.5" stroke="black" stroke-linecap="round" stroke-linejoin="round" stroke-dasharray="10 5"/>
<path d="M275.75 12C275.75 13.2337 274.734 14.25 273.5 14.25H267.992L265.18 20.5545L264.992 21H261.406L262.156 14.25H260.773L259.485 16.1722L259.273 16.5H256.086L256.273 15.609L257 12L256.273 8.39025L256.086 7.5H259.273L259.485 7.8285L260.773 9.75L262.156 9.75L261.406 3H264.991L265.179 3.4455L267.992 9.75H273.5C274.734 9.75 275.75 10.7663 275.75 12ZM274.25 12C274.25 11.5755 273.924 11.25 273.5 11.25H267.008L266.82 10.8045L264.008 4.5H263.094L263.844 11.25L259.953 11.25L259.743 10.9215L258.452 9H257.914L258.476 11.8597L258.523 12L258.476 12.141L257.914 15H258.452L259.742 13.0778L259.952 12.75L263.843 12.75L263.093 19.5H264.007L266.82 13.1955L267.007 12.75H273.5C273.924 12.75 274.25 12.4245 274.25 12Z" fill="black"/>
<line x1="294.5" y1="11.5" x2="531.5" y2="11.5" stroke="black" stroke-linecap="round" stroke-linejoin="round"/>
</svg>
