<svg width="141" height="20" viewBox="0 0 141 20" fill="none" xmlns="http://www.w3.org/2000/svg">
<path d="M1 9.5C0.723858 9.5 0.5 9.72386 0.5 10C0.5 10.2761 0.723858 10.5 1 10.5V9.5ZM1 10.5H1.96429V9.5H1V10.5ZM3.89286 10.5H5.82143V9.5H3.89286V10.5ZM7.75 10.5H9.67857V9.5H7.75V10.5ZM11.6071 10.5H13.5357V9.5H11.6071V10.5ZM15.4643 10.5H17.3929V9.5H15.4643V10.5ZM19.3214 10.5H21.25V9.5H19.3214V10.5ZM23.1786 10.5H25.1071V9.5H23.1786V10.5ZM27.0357 10.5H28.9643V9.5H27.0357V10.5ZM30.8929 10.5H32.8214V9.5H30.8929V10.5ZM34.75 10.5H36.6786V9.5H34.75V10.5ZM38.6071 10.5H40.5357V9.5H38.6071V10.5ZM42.4643 10.5H44.3929V9.5H42.4643V10.5ZM46.3214 10.5H48.25V9.5H46.3214V10.5ZM50.1786 10.5H52.1071V9.5H50.1786V10.5ZM54.0357 10.5H55V9.5H54.0357V10.5Z" fill="#333333"/>
<path d="M87 9.5C86.7239 9.5 86.5 9.72386 86.5 10C86.5 10.2761 86.7239 10.5 87 10.5V9.5ZM87 10.5H87.9643V9.5H87V10.5ZM89.8929 10.5H91.8214V9.5H89.8929V10.5ZM93.75 10.5H95.6786V9.5H93.75V10.5ZM97.6071 10.5H99.5357V9.5H97.6071V10.5ZM101.464 10.5H103.393V9.5H101.464V10.5ZM105.321 10.5H107.25V9.5H105.321V10.5ZM109.179 10.5H111.107V9.5H109.179V10.5ZM113.036 10.5H114.964V9.5H113.036V10.5ZM116.893 10.5H118.821V9.5H116.893V10.5ZM120.75 10.5H122.679V9.5H120.75V10.5ZM124.607 10.5H126.536V9.5H124.607V10.5ZM128.464 10.5H130.393V9.5H128.464V10.5ZM132.321 10.5H134.25V9.5H132.321V10.5ZM136.179 10.5H138.107V9.5H136.179V10.5ZM140.036 10.5H141V9.5H140.036V10.5Z" fill="#333333"/>
<g clip-path="url(#clip0_566_1517)">
<path d="M78.5938 10.5C78.5938 11.2711 77.9586 11.9062 77.1875 11.9062H73.745L71.9872 15.8466L71.87 16.125H69.6289L70.0977 11.9062H69.2333L68.428 13.1077L68.2958 13.3125H66.3036L66.4208 12.7556L66.875 10.5L66.4208 8.24391L66.3036 7.6875H68.2958L68.428 7.89281L69.2328 9.09375H70.0972L69.6284 4.875H71.8695L71.9867 5.15344L73.745 9.09375H77.1875C77.9586 9.09375 78.5938 9.72891 78.5938 10.5ZM77.6563 10.5C77.6563 10.2347 77.4528 10.0312 77.1875 10.0312H73.13L73.0128 9.75281L71.255 5.8125H70.6836L71.1523 10.0312H68.7205L68.5892 9.82594L67.7825 8.625H67.4459L67.7975 10.4123L67.8266 10.5L67.7975 10.5881L67.4459 12.375H67.7825L68.5888 11.1736L68.72 10.9688H71.1519L70.6831 15.1875H71.2545L73.0123 11.2472L73.1295 10.9688H77.1875C77.4528 10.9688 77.6563 10.7653 77.6563 10.5Z" fill="#333333"/>
</g>
<defs>
<clipPath id="clip0_566_1517">
<rect width="14" height="14" fill="white" transform="matrix(0 -1 -1 0 79.5 17)"/>
</clipPath>
</defs>
</svg>
