<svg width="112" height="112" viewBox="0 0 112 112" fill="none" xmlns="http://www.w3.org/2000/svg">
<path d="M101 56C101 61.7575 96.2575 66.5 90.5 66.5H64.796L51.671 95.921L50.796 98H34.0625L37.5625 66.5H31.1085L25.0955 75.4705L24.1085 77H9.23351L10.1085 72.842L13.5 56L10.1085 39.1545L9.23351 35H24.1085L25.0955 36.533L31.105 45.5H37.559L34.059 14H50.7925L51.6675 16.079L64.796 45.5H90.5C96.2575 45.5 101 50.2425 101 56ZM94 56C94 54.019 92.481 52.5 90.5 52.5H60.204L59.329 50.421L46.204 21H41.9375L45.4375 52.5L27.2795 52.5L26.2995 50.967L20.276 42H17.763L20.388 55.3455L20.605 56L20.388 56.658L17.763 70H20.276L26.296 61.0295L27.276 59.5L45.434 59.5L41.934 91H46.2005L59.3255 61.579L60.2005 59.5H90.5C92.481 59.5 94 57.981 94 56Z" fill="#333333"/>
</svg>
