<svg width="301" height="24" viewBox="0 0 301 24" fill="none" xmlns="http://www.w3.org/2000/svg">
<line x1="0.5" y1="11.5" x2="116.5" y2="11.5" stroke="black" stroke-linecap="round" stroke-linejoin="round" stroke-dasharray="10 5"/>
<line x1="184.5" y1="11.5" x2="300.5" y2="11.5" stroke="black" stroke-linecap="round" stroke-linejoin="round" stroke-dasharray="10 5"/>
<path d="M165.75 12C165.75 13.2337 164.734 14.25 163.5 14.25H157.992L155.18 20.5545L154.992 21H151.406L152.156 14.25H150.773L149.485 16.1722L149.273 16.5H146.086L146.273 15.609L147 12L146.273 8.39025L146.086 7.5H149.273L149.485 7.8285L150.773 9.75L152.156 9.75L151.406 3H154.991L155.179 3.4455L157.992 9.75H163.5C164.734 9.75 165.75 10.7663 165.75 12ZM164.25 12C164.25 11.5755 163.924 11.25 163.5 11.25H157.008L156.82 10.8045L154.008 4.5H153.094L153.844 11.25L149.953 11.25L149.743 10.9215L148.452 9H147.914L148.476 11.8597L148.523 12L148.476 12.141L147.914 15H148.452L149.742 13.0778L149.952 12.75L153.843 12.75L153.093 19.5H154.007L156.82 13.1955L157.007 12.75H163.5C163.924 12.75 164.25 12.4245 164.25 12Z" fill="black"/>
</svg>
